<?xml version="1.0" encoding="utf-8"?>
<!-- Generator: Adobe Illustrator 17.0.0, SVG Export Plug-In . SVG Version: 6.00 Build 0)  -->
<!DOCTYPE svg PUBLIC "-//W3C//DTD SVG 1.1//EN" "http://www.w3.org/Graphics/SVG/1.1/DTD/svg11.dtd">
<svg version="1.1" id="Layer_1" xmlns="http://www.w3.org/2000/svg" xmlns:xlink="http://www.w3.org/1999/xlink" x="0px" y="0px"
	 width="1792px" height="1792px" viewBox="0 0 1792 1792" enable-background="new 0 0 1792 1792" xml:space="preserve">
<path fill="#FFFFFF" d="M576,1312v64c0,8.667-3.167,16.167-9.5,22.5s-13.833,9.5-22.5,9.5h-64c-8.667,0-16.167-3.167-22.5-9.5
	s-9.5-13.833-9.5-22.5v-64c0-8.667,3.167-16.167,9.5-22.5s13.833-9.5,22.5-9.5h64c8.667,0,16.167,3.167,22.5,9.5
	S576,1303.333,576,1312z M576,1056v64c0,8.667-3.167,16.167-9.5,22.5s-13.833,9.5-22.5,9.5h-64c-8.667,0-16.167-3.167-22.5-9.5
	s-9.5-13.833-9.5-22.5v-64c0-8.667,3.167-16.167,9.5-22.5s13.833-9.5,22.5-9.5h64c8.667,0,16.167,3.167,22.5,9.5
	S576,1047.333,576,1056z M832,1056v64c0,8.667-3.167,16.167-9.5,22.5s-13.833,9.5-22.5,9.5h-64c-8.667,0-16.167-3.167-22.5-9.5
	s-9.5-13.833-9.5-22.5v-64c0-8.667,3.167-16.167,9.5-22.5s13.833-9.5,22.5-9.5h64c8.667,0,16.167,3.167,22.5,9.5
	S832,1047.333,832,1056z M576,800v64c0,8.667-3.167,16.167-9.5,22.5S552.667,896,544,896h-64c-8.667,0-16.167-3.167-22.5-9.5
	S448,872.667,448,864v-64c0-8.667,3.167-16.167,9.5-22.5s13.833-9.5,22.5-9.5h64c8.667,0,16.167,3.167,22.5,9.5S576,791.333,576,800
	z M1344,1312v64c0,8.667-3.167,16.167-9.5,22.5s-13.833,9.5-22.5,9.5h-64c-8.667,0-16.167-3.167-22.5-9.5s-9.5-13.833-9.5-22.5v-64
	c0-8.667,3.167-16.167,9.5-22.5s13.833-9.5,22.5-9.5h64c8.667,0,16.167,3.167,22.5,9.5S1344,1303.333,1344,1312z M1088,1056v64
	c0,8.667-3.167,16.167-9.5,22.5s-13.833,9.5-22.5,9.5h-64c-8.667,0-16.167-3.167-22.5-9.5s-9.5-13.833-9.5-22.5v-64
	c0-8.667,3.167-16.167,9.5-22.5s13.833-9.5,22.5-9.5h64c8.667,0,16.167,3.167,22.5,9.5S1088,1047.333,1088,1056z M832,800v64
	c0,8.667-3.167,16.167-9.5,22.5S808.667,896,800,896h-64c-8.667,0-16.167-3.167-22.5-9.5S704,872.667,704,864v-64
	c0-8.667,3.167-16.167,9.5-22.5s13.833-9.5,22.5-9.5h64c8.667,0,16.167,3.167,22.5,9.5S832,791.333,832,800z M576,544v64
	c0,8.667-3.167,16.167-9.5,22.5S552.667,640,544,640h-64c-8.667,0-16.167-3.167-22.5-9.5S448,616.667,448,608v-64
	c0-8.667,3.167-16.167,9.5-22.5s13.833-9.5,22.5-9.5h64c8.667,0,16.167,3.167,22.5,9.5S576,535.333,576,544z M1344,1056v64
	c0,8.667-3.167,16.167-9.5,22.5s-13.833,9.5-22.5,9.5h-64c-8.667,0-16.167-3.167-22.5-9.5s-9.5-13.833-9.5-22.5v-64
	c0-8.667,3.167-16.167,9.5-22.5s13.833-9.5,22.5-9.5h64c8.667,0,16.167,3.167,22.5,9.5S1344,1047.333,1344,1056z M1088,800v64
	c0,8.667-3.167,16.167-9.5,22.5s-13.833,9.5-22.5,9.5h-64c-8.667,0-16.167-3.167-22.5-9.5S960,872.667,960,864v-64
	c0-8.667,3.167-16.167,9.5-22.5s13.833-9.5,22.5-9.5h64c8.667,0,16.167,3.167,22.5,9.5S1088,791.333,1088,800z M832,544v64
	c0,8.667-3.167,16.167-9.5,22.5S808.667,640,800,640h-64c-8.667,0-16.167-3.167-22.5-9.5S704,616.667,704,608v-64
	c0-8.667,3.167-16.167,9.5-22.5s13.833-9.5,22.5-9.5h64c8.667,0,16.167,3.167,22.5,9.5S832,535.333,832,544z M576,288v64
	c0,8.667-3.167,16.167-9.5,22.5S552.667,384,544,384h-64c-8.667,0-16.167-3.167-22.5-9.5S448,360.667,448,352v-64
	c0-8.667,3.167-16.167,9.5-22.5s13.833-9.5,22.5-9.5h64c8.667,0,16.167,3.167,22.5,9.5S576,279.333,576,288z M1344,800v64
	c0,8.667-3.167,16.167-9.5,22.5s-13.833,9.5-22.5,9.5h-64c-8.667,0-16.167-3.167-22.5-9.5s-9.5-13.833-9.5-22.5v-64
	c0-8.667,3.167-16.167,9.5-22.5s13.833-9.5,22.5-9.5h64c8.667,0,16.167,3.167,22.5,9.5S1344,791.333,1344,800z M1088,544v64
	c0,8.667-3.167,16.167-9.5,22.5s-13.833,9.5-22.5,9.5h-64c-8.667,0-16.167-3.167-22.5-9.5S960,616.667,960,608v-64
	c0-8.667,3.167-16.167,9.5-22.5s13.833-9.5,22.5-9.5h64c8.667,0,16.167,3.167,22.5,9.5S1088,535.333,1088,544z M832,288v64
	c0,8.667-3.167,16.167-9.5,22.5S808.667,384,800,384h-64c-8.667,0-16.167-3.167-22.5-9.5S704,360.667,704,352v-64
	c0-8.667,3.167-16.167,9.5-22.5s13.833-9.5,22.5-9.5h64c8.667,0,16.167,3.167,22.5,9.5S832,279.333,832,288z M1344,544v64
	c0,8.667-3.167,16.167-9.5,22.5s-13.833,9.5-22.5,9.5h-64c-8.667,0-16.167-3.167-22.5-9.5s-9.5-13.833-9.5-22.5v-64
	c0-8.667,3.167-16.167,9.5-22.5s13.833-9.5,22.5-9.5h64c8.667,0,16.167,3.167,22.5,9.5S1344,535.333,1344,544z M1088,288v64
	c0,8.667-3.167,16.167-9.5,22.5s-13.833,9.5-22.5,9.5h-64c-8.667,0-16.167-3.167-22.5-9.5S960,360.667,960,352v-64
	c0-8.667,3.167-16.167,9.5-22.5s13.833-9.5,22.5-9.5h64c8.667,0,16.167,3.167,22.5,9.5S1088,279.333,1088,288z M1344,288v64
	c0,8.667-3.167,16.167-9.5,22.5s-13.833,9.5-22.5,9.5h-64c-8.667,0-16.167-3.167-22.5-9.5s-9.5-13.833-9.5-22.5v-64
	c0-8.667,3.167-16.167,9.5-22.5s13.833-9.5,22.5-9.5h64c8.667,0,16.167,3.167,22.5,9.5S1344,279.333,1344,288z M1088,1664h384V128
	H320v1536h384v-224c0-8.667,3.167-16.167,9.5-22.5s13.833-9.5,22.5-9.5h320c8.667,0,16.167,3.167,22.5,9.5s9.5,13.833,9.5,22.5V1664
	z M1600,64v1664c0,17.333-6.333,32.333-19,45s-27.667,19-45,19H256c-17.333,0-32.333-6.333-45-19s-19-27.667-19-45V64
	c0-17.333,6.333-32.333,19-45s27.667-19,45-19h1280c17.333,0,32.333,6.333,45,19S1600,46.667,1600,64z"/>
</svg>
