<?xml version="1.0" encoding="utf-8"?>
<!-- Generator: Adobe Illustrator 17.0.0, SVG Export Plug-In . SVG Version: 6.00 Build 0)  -->
<!DOCTYPE svg PUBLIC "-//W3C//DTD SVG 1.1//EN" "http://www.w3.org/Graphics/SVG/1.1/DTD/svg11.dtd">
<svg version="1.1" id="Layer_1" xmlns="http://www.w3.org/2000/svg" xmlns:xlink="http://www.w3.org/1999/xlink" x="0px" y="0px"
	 width="612px" height="792px" viewBox="0 0 612 792" enable-background="new 0 0 612 792" xml:space="preserve">
<g>
	<g>
		<g>
			<path fill="#FFFFFF" d="M319.165,237.789l-12.649-31.632l-12.649,31.632c-1.345,3.364-4.347,5.776-7.918,6.366l-46.951,7.825
				l30.308,30.308c2.36,2.37,3.436,5.724,2.888,9.026l-7.442,44.674l36.445-21.86c3.271-1.966,7.38-1.966,10.651,0l36.434,21.86
				l-7.442-44.674c-0.548-3.302,0.528-6.656,2.888-9.026l30.308-30.308l-46.951-7.825
				C323.512,243.565,320.51,241.153,319.165,237.789z"/>
			<path fill="#FFFFFF" d="M471.227,286.874c-6.708-6.242-10.206-13.704-9.574-20.463c0.455-5.041,3.25-9.327,8.074-12.4
				c0.642-0.404,1.221-0.879,1.76-1.408l9.16-9.16c13.487-13.497,17.047-33.423,9.078-50.76
				c-7.971-17.328-25.297-27.502-44.446-26.116l-13.581,1.046c-6.884,0.497-13.425-1.76-18.465-6.439
				c-5.041-4.669-7.825-11.024-7.825-17.907v-8.074c0-19.428-11.841-36.135-30.183-42.573c-17.969-6.304-37.252-0.993-49.435,13.519
				c-10.361,8.177-29.717,8.24-39.489,0.103c-12.175-14.593-31.53-19.945-49.53-13.621c-18.332,6.439-30.183,23.145-30.183,42.573
				v8.074c0,6.884-2.774,13.239-7.825,17.907c-5.041,4.678-11.551,6.946-18.456,6.439l-13.581-1.046
				c-19.159-1.429-36.476,8.788-44.446,26.116c-7.98,17.348-4.409,37.274,9.088,50.76l9.14,9.16c0.879,0.87,1.904,1.584,3.032,2.101
				c4.409,2.007,7.007,4.957,7.722,8.788c1.253,6.603-2.806,15.474-10.754,23.631l-9.14,9.16
				c-13.498,13.487-17.068,33.413-9.088,50.75c7.971,17.348,25.504,27.575,44.446,26.125l13.57-1.046
				c7.153-0.6,14.129,1.946,19.387,6.832c4.699,4.358,7.391,10.206,7.37,16.074v15.743c0.01,18.269,9.284,33.537,24.801,40.813
				c16.727,7.846,36.818,4.658,52.458-8.322c0.393-0.331,0.767-0.694,1.107-1.087l2.329-2.608
				c3.105-3.478,10.434-5.817,18.259-5.817c7.815,0,15.143,2.34,18.238,5.817l2.329,2.608c0.29,0.331,0.61,0.642,0.932,0.932
				c9.637,8.395,21.664,12.773,33.692,12.773c7.101,0,14.222-1.532,20.826-4.678c15.526-7.37,24.47-21.84,23.91-38.339v-15.993
				c-0.187-7.08,2.453-13.57,7.432-18.289c4.927-4.689,11.417-6.998,18.321-6.459l13.59,1.046
				c19.108,1.397,36.466-8.788,44.446-26.116c7.971-17.337,4.409-37.263-9.078-50.771L471.227,286.874z M402.891,252.395
				l-40.761,40.761l10.257,61.536c0.662,3.985-1.055,7.991-4.389,10.268c-1.749,1.19-3.778,1.79-5.827,1.79
				c-1.832,0-3.674-0.497-5.32-1.48l-50.336-30.203l-50.337,30.203c-3.478,2.08-7.825,1.957-11.147-0.311
				c-3.333-2.277-5.051-6.283-4.389-10.268l10.247-61.536l-40.751-40.761c-2.743-2.743-3.715-6.79-2.536-10.475
				c1.18-3.695,4.327-6.418,8.156-7.049l61.039-10.175l20.111-50.253c1.573-3.934,5.372-6.51,9.606-6.51
				c4.244,0,8.042,2.578,9.615,6.51l20.102,50.253l61.039,10.175c3.829,0.632,6.976,3.354,8.156,7.049
				C406.606,245.604,405.633,249.652,402.891,252.395z"/>
			<path fill="#FFFFFF" d="M390.911,469.894c-9.316,4.43-19.314,6.676-29.717,6.676h-0.021c-16.003,0-31.57-5.517-44.302-15.506
				v63.678c0,5.724-4.626,10.35-10.35,10.35s-10.35-4.626-10.35-10.35v-64.621c-13.332,10.547-29.2,16.396-45.15,16.396
				c-9.782,0-19.191-2.091-27.968-6.2c-7.836-3.685-14.553-8.891-20.111-15.122l-0.041,236.453c0,4.389,2.763,8.302,6.893,9.761
				c1.128,0.404,2.308,0.589,3.457,0.589c3.064,0,6.035-1.356,8.042-3.829l85.27-105.279l85.052,104.026
				c2.784,3.384,7.391,4.647,11.5,3.188c4.119-1.47,6.873-5.372,6.873-9.75V455.962
				C404.678,461.551,398.342,466.364,390.911,469.894z"/>
		</g>
	</g>
</g>
</svg>
